<mxfile host="Electron" modified="2025-01-28T15:47:53.067Z" agent="Mozilla/5.0 (Windows NT 10.0; Win64; x64) AppleWebKit/537.36 (KHTML, like Gecko) draw.io/24.6.4 Chrome/124.0.6367.207 Electron/30.0.6 Safari/537.36" etag="phS6--cgo0M5jqw-6pFA" version="24.6.4" type="device" pages="3">
  <diagram name="conceptual-view" id="qQBJHlneP8oKwgfSJJsp">
    <mxGraphModel dx="2074" dy="1196" grid="1" gridSize="10" guides="1" tooltips="1" connect="1" arrows="1" fold="1" page="1" pageScale="1" pageWidth="850" pageHeight="1100" math="0" shadow="0">
      <root>
        <mxCell id="0" />
        <mxCell id="1" parent="0" />
        <mxCell id="A7I1jCUfXx68OXb0lwRN-6" value="" style="rounded=0;whiteSpace=wrap;html=1;fillColor=#d5e8d4;strokeColor=#82b366;" vertex="1" parent="1">
          <mxGeometry x="389" y="180" width="330" height="350" as="geometry" />
        </mxCell>
        <mxCell id="A7I1jCUfXx68OXb0lwRN-1" value="dev-queue-csv" style="sketch=0;points=[[0,0,0],[0.25,0,0],[0.5,0,0],[0.75,0,0],[1,0,0],[0,1,0],[0.25,1,0],[0.5,1,0],[0.75,1,0],[1,1,0],[0,0.25,0],[0,0.5,0],[0,0.75,0],[1,0.25,0],[1,0.5,0],[1,0.75,0]];outlineConnect=0;fontColor=#232F3E;fillColor=#E7157B;strokeColor=#ffffff;dashed=0;verticalLabelPosition=bottom;verticalAlign=top;align=center;html=1;fontSize=12;fontStyle=0;aspect=fixed;shape=mxgraph.aws4.resourceIcon;resIcon=mxgraph.aws4.sqs;" vertex="1" parent="1">
          <mxGeometry x="515" y="260" width="78" height="78" as="geometry" />
        </mxCell>
        <mxCell id="A7I1jCUfXx68OXb0lwRN-2" value="" style="shape=image;verticalLabelPosition=bottom;labelBackgroundColor=default;verticalAlign=top;aspect=fixed;imageAspect=0;image=data:image/png,iVBORw0KGgoAAAANSUhEUgAAASsAAACoCAMAAACPKThEAAABZVBMVEX////zZh//gybnTRnsWBv/ZQD5dCL/YQD/96T/ZgD/aQD/XwD8vSP///3/v5n/bAD/69v+6QD/0gjmQQD76cD/lVX/9+///Pj/xwD/1bz/tgD/zAn8vCD7wC3+uRj/8uf93k//7kf/cxX/3Mj92Vn/7Tv+6yP/h0L/xqb/qHb/8dH/uZD75sP/oWv/+9nrzAD3x7jrUA7/rH3/9Y7/96XwtX7/5dL/9pr901b+8Lb9hCD/mF3+9Ib9zk7+8uH/y6z/8m//8GH9eQ3/sofx6uX3jlr/17//gDL/71Txup//hTfxWADtsif93kj+6pD9xDn/kh3/fxr+yS/9pivyzzX3nnT0qhn13Cz5lh3twAv3rI751cj23AfsuArrzjrrxU/tsWLylUvv24vr3Kn/833//ejwiV/ygyjuvazqq5XybinucTzqeEr0kzjxqjHroC/ymn354Hn95oHxtz7sjXLqd1XpakPelD9IAAANYUlEQVR4nO2ca3vTRhaAnctokCbWCFJJqCRVkUpk46oQl7qlprjEqQUGlgbSkDaB7XZpgUDZbneX378zo9tIlhTnaWLnMu+XFj2SIr05c+bMRanVBAKBQCAQCAQCgUAgEAgEAoFAIBAIBAKBQCAQCAQCgUAgEAgEAoFAIBCcaszbeTRNs20twrZtwzSn/ZDHhNvff13J7Kynd9uqpRnTftLpc5vY2I8Nwqzn3+uc8QC7OoaryNjabPfemY6uzx4/+X5cW0SXd2992k88PT67/HBz+QC61rzr037kqUFcPX++eQBdX2/8cFYbInW1Sbi2+WxrTF0b302sHbqt3qR+1Bh8dvnyU8I1xrOt7bFk6VWyDPvwuksVeYd2r78OcXX5Smrr2o9b2/v3jBvfleuoB45/aE+nIv3Q7vXXYa6u8LbG0bX2U+kNBxDLh5bQjp0rourKysrKLiHRtbSPrrWdsht2FQwbh/V0x9HVSgTn68elJxW6Nr4ruZ+h4BYIDuvpjrOrlfMZXc/KK4mywGqgrqGgziE93TF2dZ6xy7fGskpi44fi+w2RVdNh+5Ce7ti7in1V65IK64YOwGbNgrieHKkbrM+03YFrZ881OgO3kzvGztOSXjZyRQ7mT6QXaxMey5e4yukiXePsRq4RFo512oiElIlJcMVozgbpHHUMIcC6m56pNSWZHHP0AXe5pWMAIR42IgvMVafrACg7/MV2WwIIKkN1orbKXWV8bT7/+8//2L8Rmg5LVU2QNh0NAWJQ9rp+AGVZjQ+rGCme3+xiJCcN1vQBcrp+V4LQC8OIulJlNKvrgQxw8gsYOAh32/4wOW8yVLpaWbly986LP//8hfHPHzKh5RX8Ti3IusAOBMk7aAiTYLNJozTdQIbRmEWFwNdoQzVaMmyFx+pdiBu0NDMtBw5ZjUZcNZDnmvU6vdiJbjrA0Gc3HEiw6CmOiqtFrlauXL7z7YtbX3557kYINdVZf+3wroKChKWjMHAkmAQQcYXiessIFMwcaEDuxyeoEEdBBJW4PWoSbIaHHNyNbHRwdFPbgf30vOQ+R0/G1RXq6NtbnxNJGW7cOHdz3V6/50jVVYOtRPHUAlJ8TENyOuYhAcfet4+cJPvXnTDYbJz6o90DvZMKlCAZBPhQj/+bXGwBPLlWSFxR7t4lgfTi1q3PCV8ysq5u/GoYBnElVbpqRW9D4iYpsTSEuLfRZdZI+zpXVfhhbJAYSk80AyZQBXLaSzQg86YpcprlzSGa3EzE1bt37pBY+paYIqpKXJ07d9M0Q1dSlasgeXAPNKP/I664lGIhmQqp19OiotZm7a2ugy53Kx9QgSoM0osHgMlsZXJUGzVrk2J8V6bJXCWyRosGF+C4wfQgjl4o60pD0M1fFroysdziDpqsLFOhl0p1Q1fdTIrqcQ3yqIldvRjblVTqyodJZjJw3ONlXZkKTNqMqbkWYdBlrmwZpM0tpsCVEchdtZXgy5PrCa+yORmSsIiwF0xVkSuSr1JXUkkbNDBKY6YrR7N0WVc1DKJO0fUlBTFkhboiaX8k4opc2RKGiINvpUdMph8ktQLN8SP94LkbLLBiV1Kxqx5wbscL1nYPQI0dzbmKOj2jCxD22mqDoMMDuXLkdoOnN7k2WFhf0RqUOovrK1o0/Jq6ksL6KveQnoKxEoMxCNNPPq4gbWlmALAa57Y+ilwNankKXcHR8yZDoSuucL+cOrvZTlwRWV/n55E1WQk4NhQnPJzPVzR6mgCn0zahK5KvMr0/c1SYrw5vKvGAhPmqzFUqjVSpP8/MSKmskWnkPvDqKbTEYm0q3w/SatXgBoaxK9ORR0vwon4wbLLT4IMLXGCVuzp//tLszAwva20n2wRJ+Z39fXthvZ511YA02joIcLOBoataF/BrNq0htVnkqgWdKS1QfnDx0tMxXO0+mZ+Z4WU5b3MPPAC5JYkeZAeydXvAatSMq3ogM1c9pKQHzbCsLXKlKYALyklCXF268HQ/V8/2IlWJLHw9l9m7mbK7Rhsa6/I0pKQTND0IqQ8bcG2wDVjNQBohd2I8HixwlU12HXVi3SBzdenStadVrna3E1OxLOe39Wxqt/n5vZCuPKyF8wxxgukocihUV+Ihr+kjHA2ue+lUlhvNKRS6MiTZicsL1xn5sUdH6OrChd1yV0t7MxmYrJ1cL9gAOF8TDiDSmKsWCizbNLW+LK+F7VQDClY123b7GLX78Yi7j4A+MEyj05aRX9YP0qsdIPsdw7BdX0YTnJOJXYW2CkxdeDk/M5OX5bzKhRUZNo/2TphOKNN50R5AgBRcCOlxSuvQOWVFRkhRaypy4iljGUFSmUEUDw1VNORcoTgYDR/SE0ndr0yyfkhdXdjdLZC1lRdFwa/zquymP7rO1Wv3mat6zVD1jbVZnysiTdVbw2s6nQfVmu04+9utIVbwsBX/2/L7qStyXtJ7aP0hudxTJ9ojcq5YaGVN/RiMBBXh/uv1dXPclMpcFVN4vD72nSeX1CMyrmholeb0lFfr+bCqoMLVSSPritpKVC3vFQbV252DqDrNrois0Nbu74VB9Ya0v/EbYO10u4pC60Fh65t5e3193TjQhNHpdkVkXRstFOIm+ObewebWTrmrC49/LzHFbO0daCcyGQ+eZlfLC8vvhlW2fjtAWWM0jtP22L/EqKvHCwsLyw8eVIeWNu3nngZ5V5cWqKplIuvdywpbM6V7IE8xOVcsqCJZD/61V+5q7wx+a5JxdXFhIXG1T2jdf3v2PvriXLHmx7mqDq37r6f96BMndbWwtJRzxWyV5/jKVsiWlNmycufUfL4Tu7q4tFTgijXEoCSwyr8HIHjpyjDYaJ0OXaGrS0sflbhioVXcEPeqMpauSE2G72EI5clN9B4hzNXFj5iqQlflOf5+Vf2uy8lCg9HDChpdfz95EFfEVKiqxFVZjr//R8V9OVd0iQbjI3+To+cDamofV8xWQWi9qWiEGVd0meIUBNanH47jqji07lf0hLqcWS6Md4KcaMZw9ejx483NzefPn+fLh6qEld3RWJuV02Ue02q1+73MllhzoLb76iDpLg2XrnQYPe5EdlVjquPQAlfhgHD50aNH33zzccq/f/liNefqXvl9c642QLxMWldxWEn4iRmzFR5CuBW1agsFdbMf7mVT6FJOfBXUJ7n5P0fGFZUVOvrqk5BU1Y2bN79Yzc4AVlVYWVcGiLc+mh5SfMvt+Rg6UZDYQ6ToDWugegDqoSwLeYaHPNXq9QMZ+jVTR06z11N1BQTTq9USVws0kogkwicpsamHf7vJXGVkVXWEOuC/5G3BeGOIB4Nov18AJCamPoRBtLbYUKJ9sxYcduXQbr0tA8tH0dKghSe5+T8HdcWC6RvGVyWuPr4ZuZofO644VxaMvqegHwHEcWFEnz+oKN3X3oqW4S2I5Xjhte4pTtoztIA0tcD69MOlJZabHlW5evhJ4mp+bFd1k2G4XQSiYLAht2W7B+nafH3IbUmwcbgR0oLpF021BlDSXQ0aBqML3BPi4K7mx3OlYCcEQ+DFr9eHw/QUE9PdtPUe17mZQbhN2YLcXqwOvzvSCODU5qRpG1yKEvpYbZCTVVkzJK4cDJxu9OazmW1mXZgvulJXXEvTFIWz6U1tuyif2x+Nk9t5WfcrJpJJGzRCbM3yULRTG0CX21Lahn7uqnqxK3zMXMVFQ5jmy2qGrKyquj3TD6qQfcvUgdjjkJLa3iC1KJuVcE6MqwW+GGXOOFl/3khdhbKqppGzrmpN9pGci9IN8JTIVcenhSYEAMhYPsauro45xnn4cPM/e/PzvKzqeYasK5sFlovkgcbDCgQV0EKzQ//dkY5zXI3hio2dn7ycn5uby8iqSld5V7UN+oodBEcHdA0k92Mx5ol39WA7oKLmcrLeVBWFeVce7fNIeTUyQWoo3DcAJ9zVu9/35jhSV5VNsCCuaLWwJo/8lYse4rb2l9QMJ8HVg3cvM6KysirXcXKujPCLk6Y8slu5lSlPj3U/WOAqmpMhKWomL4qTtVq5jJN31QLsT4FoyWiHwj7kVaGUHmmAE9YPLqS5vJBQ1fvqIWzW1QBEg2cfcF+ftn2T9Y3JEHGgnLCaYXl5a1sqFRXLWt1n8wfnytTaAEZVpxnIcvSHTWwfUSH1oSyFKowWkKRwEHQCXFFZW9sjKapA1uqrfe6rK5LfDQkAUtrxRIHhQThsWYNGE6NwJquDAW42emrTIQeij8OOtauPIlGjubyQ1X03M+gQQEhLcVKLe21uGsVsSeH3yk68s1/zQHiAlFkk1mjUWXznqEHAuRqiabuiQVWSywtMzb3ad1tjx3U7FFqc57o+Y9BvNvtWOnFed9X4gO269GzbctOfYA7c9A71Tv5PQ02O0NXSVkUuz7P4fue07AA9GNTV1vb4ouZWF/97BrepMa6SXD6+KGLqrAYVQVsdX9Tc4uL/XpmT/2bouDCuq9XFxdX3P+W/sDxbaIvjsPr+f3+82jHIoOTMBhXBuL4/OzsH/AZHIBAIBAKBQCAQCAQCgUAgEAgEAoFAIBAIBAKBQCAQCAQCgUAgEAgEAoHg8Pk/26HPp1EubtwAAAAASUVORK5CYII=;" vertex="1" parent="1">
          <mxGeometry x="80" y="286" width="195.77" height="110" as="geometry" />
        </mxCell>
        <mxCell id="A7I1jCUfXx68OXb0lwRN-3" value="poll" style="endArrow=classic;html=1;rounded=0;" edge="1" parent="1" source="A7I1jCUfXx68OXb0lwRN-2" target="A7I1jCUfXx68OXb0lwRN-1">
          <mxGeometry width="50" height="50" relative="1" as="geometry">
            <mxPoint x="280" y="460" as="sourcePoint" />
            <mxPoint x="450" y="580" as="targetPoint" />
          </mxGeometry>
        </mxCell>
        <mxCell id="A7I1jCUfXx68OXb0lwRN-4" value="" style="image;aspect=fixed;html=1;points=[];align=center;fontSize=12;image=img/lib/azure2/databases/Azure_Database_PostgreSQL_Server.svg;" vertex="1" parent="1">
          <mxGeometry x="515" y="396" width="48" height="64" as="geometry" />
        </mxCell>
        <mxCell id="A7I1jCUfXx68OXb0lwRN-5" value="sink" style="endArrow=classic;html=1;rounded=0;entryX=0.021;entryY=0.563;entryDx=0;entryDy=0;entryPerimeter=0;exitX=1;exitY=0.75;exitDx=0;exitDy=0;" edge="1" parent="1" source="A7I1jCUfXx68OXb0lwRN-2" target="A7I1jCUfXx68OXb0lwRN-4">
          <mxGeometry width="50" height="50" relative="1" as="geometry">
            <mxPoint x="692" y="530" as="sourcePoint" />
            <mxPoint x="480" y="530" as="targetPoint" />
          </mxGeometry>
        </mxCell>
        <mxCell id="A7I1jCUfXx68OXb0lwRN-7" value="Localstack" style="text;html=1;align=center;verticalAlign=middle;whiteSpace=wrap;rounded=0;fontSize=21;fillColor=#f5f5f5;fontColor=#333333;strokeColor=#666666;" vertex="1" parent="1">
          <mxGeometry x="389" y="180" width="121" height="50" as="geometry" />
        </mxCell>
      </root>
    </mxGraphModel>
  </diagram>
  <diagram id="Iuta2IHfwGTK5V8Vw5xW" name="flow">
    <mxGraphModel dx="2074" dy="1196" grid="1" gridSize="10" guides="1" tooltips="1" connect="1" arrows="1" fold="1" page="1" pageScale="1" pageWidth="850" pageHeight="1100" math="0" shadow="0">
      <root>
        <mxCell id="0" />
        <mxCell id="1" parent="0" />
        <mxCell id="zpX0QoRr0HqwBDXFAHkn-1" value="dev-queue-csv" style="sketch=0;points=[[0,0,0],[0.25,0,0],[0.5,0,0],[0.75,0,0],[1,0,0],[0,1,0],[0.25,1,0],[0.5,1,0],[0.75,1,0],[1,1,0],[0,0.25,0],[0,0.5,0],[0,0.75,0],[1,0.25,0],[1,0.5,0],[1,0.75,0]];outlineConnect=0;fontColor=#232F3E;fillColor=#E7157B;strokeColor=#ffffff;dashed=0;verticalLabelPosition=bottom;verticalAlign=top;align=center;html=1;fontSize=12;fontStyle=0;aspect=fixed;shape=mxgraph.aws4.resourceIcon;resIcon=mxgraph.aws4.sqs;" vertex="1" parent="1">
          <mxGeometry x="360" y="220" width="78" height="78" as="geometry" />
        </mxCell>
        <mxCell id="zpX0QoRr0HqwBDXFAHkn-3" value="receive-message" style="rounded=1;whiteSpace=wrap;html=1;" vertex="1" parent="1">
          <mxGeometry x="339" y="400" width="120" height="60" as="geometry" />
        </mxCell>
        <mxCell id="zpX0QoRr0HqwBDXFAHkn-4" value="poll" style="endArrow=classic;html=1;rounded=0;exitX=0.5;exitY=0;exitDx=0;exitDy=0;" edge="1" parent="1" source="zpX0QoRr0HqwBDXFAHkn-3" target="zpX0QoRr0HqwBDXFAHkn-1">
          <mxGeometry width="50" height="50" relative="1" as="geometry">
            <mxPoint x="399" y="390" as="sourcePoint" />
            <mxPoint x="220" y="330" as="targetPoint" />
          </mxGeometry>
        </mxCell>
        <mxCell id="zpX0QoRr0HqwBDXFAHkn-13" value="PENDING&lt;div&gt;&amp;lt;TupleTag&amp;gt;&lt;/div&gt;" style="shape=ext;margin=3;double=1;whiteSpace=wrap;html=1;align=center;" vertex="1" parent="1">
          <mxGeometry x="349" y="550" width="100" height="40" as="geometry" />
        </mxCell>
        <mxCell id="zpX0QoRr0HqwBDXFAHkn-14" value="" style="endArrow=classic;html=1;rounded=0;exitX=0.5;exitY=1;exitDx=0;exitDy=0;entryX=0.5;entryY=0;entryDx=0;entryDy=0;" edge="1" parent="1" source="zpX0QoRr0HqwBDXFAHkn-3" target="zpX0QoRr0HqwBDXFAHkn-13">
          <mxGeometry width="50" height="50" relative="1" as="geometry">
            <mxPoint x="400" y="630" as="sourcePoint" />
            <mxPoint x="450" y="580" as="targetPoint" />
          </mxGeometry>
        </mxCell>
        <mxCell id="zpX0QoRr0HqwBDXFAHkn-15" value="persis-message" style="rounded=1;whiteSpace=wrap;html=1;" vertex="1" parent="1">
          <mxGeometry x="339" y="660" width="120" height="60" as="geometry" />
        </mxCell>
        <mxCell id="zpX0QoRr0HqwBDXFAHkn-16" value="" style="endArrow=classic;html=1;rounded=0;exitX=0.5;exitY=1;exitDx=0;exitDy=0;entryX=0.5;entryY=0;entryDx=0;entryDy=0;" edge="1" parent="1" source="zpX0QoRr0HqwBDXFAHkn-13" target="zpX0QoRr0HqwBDXFAHkn-15">
          <mxGeometry width="50" height="50" relative="1" as="geometry">
            <mxPoint x="560" y="740" as="sourcePoint" />
            <mxPoint x="560" y="830" as="targetPoint" />
          </mxGeometry>
        </mxCell>
        <mxCell id="zpX0QoRr0HqwBDXFAHkn-17" value="" style="endArrow=classic;html=1;rounded=0;entryX=0.5;entryY=0;entryDx=0;entryDy=0;" edge="1" parent="1" source="zpX0QoRr0HqwBDXFAHkn-15" target="zpX0QoRr0HqwBDXFAHkn-19">
          <mxGeometry width="50" height="50" relative="1" as="geometry">
            <mxPoint x="420" y="800" as="sourcePoint" />
            <mxPoint x="399" y="810" as="targetPoint" />
          </mxGeometry>
        </mxCell>
        <mxCell id="zpX0QoRr0HqwBDXFAHkn-19" value="" style="ellipse;html=1;shape=endState;fillColor=#000000;strokeColor=#ff0000;" vertex="1" parent="1">
          <mxGeometry x="384" y="800" width="30" height="30" as="geometry" />
        </mxCell>
        <mxCell id="zpX0QoRr0HqwBDXFAHkn-20" value="dev-dlq-csv" style="sketch=0;points=[[0,0,0],[0.25,0,0],[0.5,0,0],[0.75,0,0],[1,0,0],[0,1,0],[0.25,1,0],[0.5,1,0],[0.75,1,0],[1,1,0],[0,0.25,0],[0,0.5,0],[0,0.75,0],[1,0.25,0],[1,0.5,0],[1,0.75,0]];outlineConnect=0;fontColor=#232F3E;fillColor=#E7157B;strokeColor=#ffffff;dashed=0;verticalLabelPosition=bottom;verticalAlign=top;align=center;html=1;fontSize=12;fontStyle=0;aspect=fixed;shape=mxgraph.aws4.resourceIcon;resIcon=mxgraph.aws4.sqs;" vertex="1" parent="1">
          <mxGeometry x="190" y="220" width="78" height="78" as="geometry" />
        </mxCell>
        <mxCell id="zpX0QoRr0HqwBDXFAHkn-21" value="push" style="endArrow=classic;html=1;rounded=0;exitX=0.5;exitY=0;exitDx=0;exitDy=0;exitPerimeter=0;entryX=0.5;entryY=0;entryDx=0;entryDy=0;entryPerimeter=0;edgeStyle=orthogonalEdgeStyle;curved=1;" edge="1" parent="1" source="zpX0QoRr0HqwBDXFAHkn-20" target="zpX0QoRr0HqwBDXFAHkn-1">
          <mxGeometry width="50" height="50" relative="1" as="geometry">
            <mxPoint x="409" y="410" as="sourcePoint" />
            <mxPoint x="530" y="230" as="targetPoint" />
            <Array as="points">
              <mxPoint x="229" y="170" />
              <mxPoint x="399" y="170" />
            </Array>
          </mxGeometry>
        </mxCell>
        <mxCell id="zpX0QoRr0HqwBDXFAHkn-22" value="push" style="endArrow=classic;html=1;rounded=0;entryX=0.5;entryY=1;entryDx=0;entryDy=0;entryPerimeter=0;exitX=0.5;exitY=1;exitDx=0;exitDy=0;exitPerimeter=0;edgeStyle=orthogonalEdgeStyle;curved=1;" edge="1" parent="1" source="zpX0QoRr0HqwBDXFAHkn-1" target="zpX0QoRr0HqwBDXFAHkn-20">
          <mxGeometry width="50" height="50" relative="1" as="geometry">
            <mxPoint x="210" y="410" as="sourcePoint" />
            <mxPoint x="409" y="308" as="targetPoint" />
            <Array as="points">
              <mxPoint x="399" y="340" />
              <mxPoint x="229" y="340" />
            </Array>
          </mxGeometry>
        </mxCell>
        <mxCell id="zpX0QoRr0HqwBDXFAHkn-23" value="DB_ERROR&lt;div&gt;&amp;lt;TupleTag&amp;gt;&lt;/div&gt;" style="shape=ext;margin=3;double=1;whiteSpace=wrap;html=1;align=center;fillColor=#f8cecc;strokeColor=#b85450;" vertex="1" parent="1">
          <mxGeometry x="100" y="670" width="100" height="40" as="geometry" />
        </mxCell>
        <mxCell id="zpX0QoRr0HqwBDXFAHkn-24" value="dev-error-csv" style="sketch=0;points=[[0,0,0],[0.25,0,0],[0.5,0,0],[0.75,0,0],[1,0,0],[0,1,0],[0.25,1,0],[0.5,1,0],[0.75,1,0],[1,1,0],[0,0.25,0],[0,0.5,0],[0,0.75,0],[1,0.25,0],[1,0.5,0],[1,0.75,0]];outlineConnect=0;fontColor=#232F3E;fillColor=#E7157B;strokeColor=#ffffff;dashed=0;verticalLabelPosition=bottom;verticalAlign=top;align=center;html=1;fontSize=12;fontStyle=0;aspect=fixed;shape=mxgraph.aws4.resourceIcon;resIcon=mxgraph.aws4.sqs;" vertex="1" parent="1">
          <mxGeometry x="30" y="220" width="78" height="78" as="geometry" />
        </mxCell>
        <mxCell id="zpX0QoRr0HqwBDXFAHkn-25" value="" style="endArrow=open;endFill=1;endSize=12;html=1;rounded=0;entryX=1;entryY=0.5;entryDx=0;entryDy=0;exitX=0;exitY=0.5;exitDx=0;exitDy=0;fillColor=#f8cecc;strokeColor=#b85450;" edge="1" parent="1" source="zpX0QoRr0HqwBDXFAHkn-15" target="zpX0QoRr0HqwBDXFAHkn-23">
          <mxGeometry width="160" relative="1" as="geometry">
            <mxPoint x="340" y="610" as="sourcePoint" />
            <mxPoint x="500" y="610" as="targetPoint" />
          </mxGeometry>
        </mxCell>
        <mxCell id="zpX0QoRr0HqwBDXFAHkn-26" value="publish-to-queue" style="rounded=1;whiteSpace=wrap;html=1;fillColor=#f8cecc;strokeColor=#b85450;" vertex="1" parent="1">
          <mxGeometry x="90" y="400" width="120" height="60" as="geometry" />
        </mxCell>
        <mxCell id="zpX0QoRr0HqwBDXFAHkn-27" value="" style="endArrow=open;endFill=1;endSize=12;html=1;rounded=0;entryX=0.5;entryY=1;entryDx=0;entryDy=0;exitX=0.5;exitY=0;exitDx=0;exitDy=0;fillColor=#f8cecc;strokeColor=#b85450;" edge="1" parent="1" source="zpX0QoRr0HqwBDXFAHkn-23" target="zpX0QoRr0HqwBDXFAHkn-26">
          <mxGeometry width="160" relative="1" as="geometry">
            <mxPoint x="349" y="700" as="sourcePoint" />
            <mxPoint x="210" y="700" as="targetPoint" />
          </mxGeometry>
        </mxCell>
        <mxCell id="zpX0QoRr0HqwBDXFAHkn-28" value="push" style="endArrow=open;endFill=1;endSize=12;html=1;rounded=0;entryX=0.5;entryY=1;entryDx=0;entryDy=0;exitX=0.5;exitY=0;exitDx=0;exitDy=0;fillColor=#f8cecc;strokeColor=#b85450;entryPerimeter=0;" edge="1" parent="1" source="zpX0QoRr0HqwBDXFAHkn-26" target="zpX0QoRr0HqwBDXFAHkn-24">
          <mxGeometry width="160" relative="1" as="geometry">
            <mxPoint x="160" y="680" as="sourcePoint" />
            <mxPoint x="160" y="470" as="targetPoint" />
          </mxGeometry>
        </mxCell>
        <mxCell id="zpX0QoRr0HqwBDXFAHkn-29" value="push" style="endArrow=open;endFill=1;endSize=12;html=1;rounded=0;entryX=0.5;entryY=1;entryDx=0;entryDy=0;exitX=0.5;exitY=0;exitDx=0;exitDy=0;fillColor=#f8cecc;strokeColor=#b85450;entryPerimeter=0;" edge="1" parent="1" source="zpX0QoRr0HqwBDXFAHkn-26" target="zpX0QoRr0HqwBDXFAHkn-20">
          <mxGeometry width="160" relative="1" as="geometry">
            <mxPoint x="160" y="410" as="sourcePoint" />
            <mxPoint x="79" y="308" as="targetPoint" />
          </mxGeometry>
        </mxCell>
      </root>
    </mxGraphModel>
  </diagram>
  <diagram id="2vkN--6o9q_9sNMHMzn7" name="entity-relation">
    <mxGraphModel dx="2074" dy="1196" grid="1" gridSize="10" guides="1" tooltips="1" connect="1" arrows="1" fold="1" page="1" pageScale="1" pageWidth="850" pageHeight="1100" math="0" shadow="0">
      <root>
        <mxCell id="0" />
        <mxCell id="1" parent="0" />
        <mxCell id="iSAN_TQ51AFRBi1-HDJL-1" value="file" style="shape=table;startSize=30;container=1;collapsible=1;childLayout=tableLayout;fixedRows=1;rowLines=0;fontStyle=1;align=center;resizeLast=1;html=1;" vertex="1" parent="1">
          <mxGeometry x="331" y="530" width="180" height="150" as="geometry" />
        </mxCell>
        <mxCell id="iSAN_TQ51AFRBi1-HDJL-2" value="" style="shape=tableRow;horizontal=0;startSize=0;swimlaneHead=0;swimlaneBody=0;fillColor=none;collapsible=0;dropTarget=0;points=[[0,0.5],[1,0.5]];portConstraint=eastwest;top=0;left=0;right=0;bottom=1;" vertex="1" parent="iSAN_TQ51AFRBi1-HDJL-1">
          <mxGeometry y="30" width="180" height="30" as="geometry" />
        </mxCell>
        <mxCell id="iSAN_TQ51AFRBi1-HDJL-3" value="PK" style="shape=partialRectangle;connectable=0;fillColor=none;top=0;left=0;bottom=0;right=0;fontStyle=1;overflow=hidden;whiteSpace=wrap;html=1;" vertex="1" parent="iSAN_TQ51AFRBi1-HDJL-2">
          <mxGeometry width="30" height="30" as="geometry">
            <mxRectangle width="30" height="30" as="alternateBounds" />
          </mxGeometry>
        </mxCell>
        <mxCell id="iSAN_TQ51AFRBi1-HDJL-4" value="id (varchar 36)" style="shape=partialRectangle;connectable=0;fillColor=none;top=0;left=0;bottom=0;right=0;align=left;spacingLeft=6;fontStyle=5;overflow=hidden;whiteSpace=wrap;html=1;" vertex="1" parent="iSAN_TQ51AFRBi1-HDJL-2">
          <mxGeometry x="30" width="150" height="30" as="geometry">
            <mxRectangle width="150" height="30" as="alternateBounds" />
          </mxGeometry>
        </mxCell>
        <mxCell id="iSAN_TQ51AFRBi1-HDJL-5" value="" style="shape=tableRow;horizontal=0;startSize=0;swimlaneHead=0;swimlaneBody=0;fillColor=none;collapsible=0;dropTarget=0;points=[[0,0.5],[1,0.5]];portConstraint=eastwest;top=0;left=0;right=0;bottom=0;" vertex="1" parent="iSAN_TQ51AFRBi1-HDJL-1">
          <mxGeometry y="60" width="180" height="30" as="geometry" />
        </mxCell>
        <mxCell id="iSAN_TQ51AFRBi1-HDJL-6" value="" style="shape=partialRectangle;connectable=0;fillColor=none;top=0;left=0;bottom=0;right=0;editable=1;overflow=hidden;whiteSpace=wrap;html=1;" vertex="1" parent="iSAN_TQ51AFRBi1-HDJL-5">
          <mxGeometry width="30" height="30" as="geometry">
            <mxRectangle width="30" height="30" as="alternateBounds" />
          </mxGeometry>
        </mxCell>
        <mxCell id="iSAN_TQ51AFRBi1-HDJL-7" value="file_name (varchar 250)" style="shape=partialRectangle;connectable=0;fillColor=none;top=0;left=0;bottom=0;right=0;align=left;spacingLeft=6;overflow=hidden;whiteSpace=wrap;html=1;" vertex="1" parent="iSAN_TQ51AFRBi1-HDJL-5">
          <mxGeometry x="30" width="150" height="30" as="geometry">
            <mxRectangle width="150" height="30" as="alternateBounds" />
          </mxGeometry>
        </mxCell>
        <mxCell id="iSAN_TQ51AFRBi1-HDJL-8" value="" style="shape=tableRow;horizontal=0;startSize=0;swimlaneHead=0;swimlaneBody=0;fillColor=none;collapsible=0;dropTarget=0;points=[[0,0.5],[1,0.5]];portConstraint=eastwest;top=0;left=0;right=0;bottom=0;" vertex="1" parent="iSAN_TQ51AFRBi1-HDJL-1">
          <mxGeometry y="90" width="180" height="30" as="geometry" />
        </mxCell>
        <mxCell id="iSAN_TQ51AFRBi1-HDJL-9" value="" style="shape=partialRectangle;connectable=0;fillColor=none;top=0;left=0;bottom=0;right=0;editable=1;overflow=hidden;whiteSpace=wrap;html=1;" vertex="1" parent="iSAN_TQ51AFRBi1-HDJL-8">
          <mxGeometry width="30" height="30" as="geometry">
            <mxRectangle width="30" height="30" as="alternateBounds" />
          </mxGeometry>
        </mxCell>
        <mxCell id="iSAN_TQ51AFRBi1-HDJL-10" value="status (varchar 100)" style="shape=partialRectangle;connectable=0;fillColor=none;top=0;left=0;bottom=0;right=0;align=left;spacingLeft=6;overflow=hidden;whiteSpace=wrap;html=1;" vertex="1" parent="iSAN_TQ51AFRBi1-HDJL-8">
          <mxGeometry x="30" width="150" height="30" as="geometry">
            <mxRectangle width="150" height="30" as="alternateBounds" />
          </mxGeometry>
        </mxCell>
        <mxCell id="iSAN_TQ51AFRBi1-HDJL-11" value="" style="shape=tableRow;horizontal=0;startSize=0;swimlaneHead=0;swimlaneBody=0;fillColor=none;collapsible=0;dropTarget=0;points=[[0,0.5],[1,0.5]];portConstraint=eastwest;top=0;left=0;right=0;bottom=0;" vertex="1" parent="iSAN_TQ51AFRBi1-HDJL-1">
          <mxGeometry y="120" width="180" height="30" as="geometry" />
        </mxCell>
        <mxCell id="iSAN_TQ51AFRBi1-HDJL-12" value="" style="shape=partialRectangle;connectable=0;fillColor=none;top=0;left=0;bottom=0;right=0;editable=1;overflow=hidden;whiteSpace=wrap;html=1;" vertex="1" parent="iSAN_TQ51AFRBi1-HDJL-11">
          <mxGeometry width="30" height="30" as="geometry">
            <mxRectangle width="30" height="30" as="alternateBounds" />
          </mxGeometry>
        </mxCell>
        <mxCell id="iSAN_TQ51AFRBi1-HDJL-13" value="published_date (date)" style="shape=partialRectangle;connectable=0;fillColor=none;top=0;left=0;bottom=0;right=0;align=left;spacingLeft=6;overflow=hidden;whiteSpace=wrap;html=1;" vertex="1" parent="iSAN_TQ51AFRBi1-HDJL-11">
          <mxGeometry x="30" width="150" height="30" as="geometry">
            <mxRectangle width="150" height="30" as="alternateBounds" />
          </mxGeometry>
        </mxCell>
      </root>
    </mxGraphModel>
  </diagram>
</mxfile>
